<svg id="Layer_1" data-name="Layer 1" xmlns="http://www.w3.org/2000/svg" viewBox="0 0 686.55 507.13"><defs><style>.cls-1{fill:#fdbd6b;}.cls-2{fill:#64cdf6;}.cls-3{fill:#fff;}</style></defs><title>sk9</title><path class="cls-1" d="M304.29,233.38a47.57,47.57,0,0,0-47.57,47.56v3.85a49.2,49.2,0,0,1,35.91-15.54H708.21a47.56,47.56,0,0,0-46.06-35.87Z" transform="translate(-256.72 -233.38)"/><path class="cls-2" d="M304.29,283.7a47.57,47.57,0,0,0-47.57,47.57V692.93a47.58,47.58,0,0,0,47.57,47.58H895.71a47.58,47.58,0,0,0,47.57-47.58V331.27a47.57,47.57,0,0,0-47.57-47.57Z" transform="translate(-256.72 -233.38)"/><path class="cls-3" d="M793.74,595.91c-6.22,8.75-16.64,16.36-29.94,22.12-15.4,17.86-48.87,30.24-87.69,30.24a175.89,175.89,0,0,1-17.69-.89,165.45,165.45,0,0,0,45,6c49.14,0,89.71-19.84,95.89-45.53a29,29,0,0,0,.85-6.83,29.91,29.91,0,0,0-2.56-11.94A37.28,37.28,0,0,1,793.74,595.91Z" transform="translate(-256.72 -233.38)"/><path class="cls-3" d="M608.26,554.08a33.92,33.92,0,0,0,1.48,3.75c.51,1,1.08,2.07,1.68,3.08a49.1,49.1,0,0,0,10.47,12,72.41,72.41,0,0,0,9.59,6.83c17.71,10.66,43.38,17.36,71.95,17.36,25.69,0,49-5.43,66.35-14.27,1-.52,2-1.07,3-1.61s1.73-1,2.56-1.48a73.74,73.74,0,0,0,9.59-6.83,48.58,48.58,0,0,0,10.45-12,33.73,33.73,0,0,0,3.18-6.83,26.47,26.47,0,0,0,.73-2.56,29,29,0,0,0,.85-6.83c0-28.91-43.31-52.35-96.74-52.35s-96.76,23.44-96.76,52.35c0,.37,0,.73.06,1.09-16.94,9.43-27.37,22.29-27.37,36.48a29.16,29.16,0,0,0,.84,6.83C583,600.62,592.69,611,607,618.89c2.74,1.51,5.65,2.94,8.71,4.26,16.55,7.17,37.54,11.46,60.39,11.46a165.43,165.43,0,0,0,45-6,175.84,175.84,0,0,1-17.68.89c-41.21,0-76.37-13.94-90.32-33.58a37.93,37.93,0,0,1-3.88-6.82,30.17,30.17,0,0,1-2.56-12,29,29,0,0,1,.85-6.82,34.76,34.76,0,0,0,5.59,12,49.72,49.72,0,0,0,5.93,6.83c16.58,15.95,48.15,26.75,84.39,26.75,22.84,0,43.82-4.3,60.37-11.47q4.59-2,8.72-4.26a73,73,0,0,0,15.28-11,49.81,49.81,0,0,0,5.94-6.83,34.55,34.55,0,0,0,5.58-12,29.19,29.19,0,0,0,.85-6.84c0-.86,0-1.71-.12-2.56a29.83,29.83,0,0,1-1.46,6.83,37.67,37.67,0,0,1-6.82,12,53.52,53.52,0,0,1-6.81,6.83,76.12,76.12,0,0,1-12.15,8.3c-1.23.69-2.49,1.35-3.78,2-17.25,8.62-40.28,13.89-65.6,13.89-34.27,0-64.35-9.64-81.54-24.19a53.52,53.52,0,0,1-6.81-6.83,37.67,37.67,0,0,1-6.82-12,29.85,29.85,0,0,1-1.47-6.83c.05-.55.14-1.09.22-1.63l-.28.16c0-.36-.06-.72-.06-1.09a29.1,29.1,0,0,1,.85-6.83C607.73,552.38,608,553.23,608.26,554.08Zm37.33-16.36h7.25a20.14,20.14,0,0,1,1.92-5.84c.12-.24.21-.49.34-.73,3.6-6.64,10.89-11.36,20.73-12.69l2.44,8.11,1,3.37,1.17,3.88s-5.77.66-8.56,3.9h18.65a55.21,55.21,0,0,1,3.71-6.88,31.69,31.69,0,0,1,4.94-6,31.08,31.08,0,0,1,4.81-3.69c12.45-7.76,33.83-4.48,42.76,3.72a19.82,19.82,0,0,1,4.49,6.76,27.67,27.67,0,0,1,1.83,6.09H761v7.57h-7.7a21.83,21.83,0,0,1-1.09,4.67,19.74,19.74,0,0,1-2.64,5.06,21,21,0,0,1-4.25,4.35,31.11,31.11,0,0,1-12.59,5.43,55.35,55.35,0,0,1-8.17,1.1l-.49-2.35-2.76-13.46s.51,0,1.31-.07l1.32-.14c3.19-.38,8.42-1.47,10.88-4.59H711.76c-.27.6-.54,1.19-.82,1.79s-.56,1.17-.86,1.74c-3.14,6-7.8,11.55-17.4,13.86a46.93,46.93,0,0,1-12,1.13h0c-11.68-.25-19-3.86-23.29-8.83a20.25,20.25,0,0,1-4.51-9.68h-7.32Z" transform="translate(-256.72 -233.38)"/><path class="cls-3" d="M724,532a10.54,10.54,0,0,0-6.35,2.94,15.36,15.36,0,0,0-2.14,2.74h20.06C733.8,533.14,728.64,531.3,724,532Z" transform="translate(-256.72 -233.38)"/><path class="cls-3" d="M685.86,546.2c.25-.28.5-.59.75-.91H671.46C674.26,549.73,682,550.31,685.86,546.2Z" transform="translate(-256.72 -233.38)"/><path class="cls-3" d="M614.2,474.39c-6.21,8.75-16.63,16.36-29.92,22.12-15.41,17.86-48.88,30.24-87.71,30.24a176,176,0,0,1-17.68-.89,165.4,165.4,0,0,0,45,6c49.15,0,89.71-19.84,95.9-45.53a29.56,29.56,0,0,0,.84-6.83,30,30,0,0,0-2.56-11.95A36,36,0,0,1,614.2,474.39Z" transform="translate(-256.72 -233.38)"/><path class="cls-3" d="M428.73,432.56a31.45,31.45,0,0,0,1.49,3.75c.49,1,1.07,2.06,1.68,3.08a49.11,49.11,0,0,0,10.47,12,73.17,73.17,0,0,0,9.58,6.82c17.71,10.65,43.38,17.36,71.95,17.36,25.69,0,49-5.43,66.36-14.28,1-.52,2-1.06,3-1.61s1.74-1,2.57-1.47a74.67,74.67,0,0,0,9.59-6.82,48.79,48.79,0,0,0,10.45-12,34,34,0,0,0,3.18-6.83c.29-.84.53-1.7.74-2.56a29.54,29.54,0,0,0,.84-6.82c0-28.92-43.31-52.36-96.74-52.36s-96.76,23.44-96.76,52.36c0,.35,0,.72.05,1.08-16.93,9.43-27.36,22.29-27.36,36.48a28.5,28.5,0,0,0,.85,6.82c2.77,11.54,12.48,21.9,26.8,29.81q4.13,2.26,8.72,4.26c16.55,7.16,37.53,11.46,60.37,11.46a165.06,165.06,0,0,0,45-6,175.84,175.84,0,0,1-17.68.89c-41.2,0-76.36-13.94-90.32-33.58a37.67,37.67,0,0,1-3.88-6.83,30.09,30.09,0,0,1-2.56-11.95,29,29,0,0,1,.85-6.83,34.72,34.72,0,0,0,5.59,12,48.5,48.5,0,0,0,5.94,6.82c16.57,16,48.14,26.75,84.38,26.75,22.84,0,43.82-4.3,60.38-11.46,3.05-1.33,6-2.75,8.71-4.26a72.46,72.46,0,0,0,15.28-11,47.78,47.78,0,0,0,5.93-6.82,34.57,34.57,0,0,0,5.6-12,29.49,29.49,0,0,0,.84-6.83c0-.86,0-1.71-.12-2.56a29.72,29.72,0,0,1-1.46,6.83,37.67,37.67,0,0,1-6.82,11.95,54.18,54.18,0,0,1-6.81,6.83,75.77,75.77,0,0,1-12.16,8.3c-1.21.69-2.48,1.35-3.77,2-17.24,8.62-40.28,13.89-65.6,13.89-34.26,0-64.35-9.65-81.53-24.19a52.88,52.88,0,0,1-6.81-6.83,37.32,37.32,0,0,1-6.83-11.95,29.74,29.74,0,0,1-1.47-6.83c.05-.55.14-1.09.22-1.63-.1.05-.18.11-.29.16,0-.37-.05-.73-.05-1.09A29,29,0,0,1,428,430C428.2,430.86,428.45,431.72,428.73,432.56Zm37.33-16.37h7.25a20.42,20.42,0,0,1,1.92-5.82c.12-.25.21-.5.34-.74,3.6-6.64,10.89-11.36,20.73-12.7l2.44,8.12,1,3.37,1.16,3.88s-5.77.66-8.55,3.89H511a56.56,56.56,0,0,1,3.71-6.88,31.76,31.76,0,0,1,4.95-6,30.88,30.88,0,0,1,4.79-3.69c12.45-7.77,33.84-4.48,42.77,3.72a19.84,19.84,0,0,1,4.5,6.76,28.78,28.78,0,0,1,1.82,6.09h7.94v7.57h-7.7a21.6,21.6,0,0,1-1.09,4.68,19.54,19.54,0,0,1-2.64,5.05,20.9,20.9,0,0,1-4.24,4.34,31,31,0,0,1-12.6,5.44,54.1,54.1,0,0,1-8.17,1.09l-.48-2.34-2.77-13.46s.51,0,1.32-.08c.37,0,.82-.07,1.32-.13,3.18-.38,8.41-1.47,10.87-4.59H532.23c-.26.6-.54,1.19-.82,1.79s-.56,1.17-.86,1.74c-3.14,6-7.8,11.55-17.4,13.85a46.89,46.89,0,0,1-12,1.14h0c-11.68-.25-19-3.86-23.29-8.84a20.06,20.06,0,0,1-4.5-9.68h-7.33Z" transform="translate(-256.72 -233.38)"/><path class="cls-3" d="M544.48,410.51a10.5,10.5,0,0,0-6.34,2.93,14.93,14.93,0,0,0-2.14,2.75h20C554.27,411.62,549.11,409.77,544.48,410.51Z" transform="translate(-256.72 -233.38)"/><path class="cls-3" d="M506.33,424.68c.26-.28.5-.59.75-.92H491.93C494.73,428.21,502.5,428.78,506.33,424.68Z" transform="translate(-256.72 -233.38)"/></svg>