<svg id="Layer_1" data-name="Layer 1" xmlns="http://www.w3.org/2000/svg" viewBox="0 0 772.74 970.48"><defs><style>.cls-1{fill:#5bcaec;}.cls-2{fill:#ecc4b3;}</style></defs><title>contact</title><path d="M546.86,805,412,548.08q-9.31-7.4-18.07-15.53l-2.45,2.15C211,690.81,213.45,964,213.65,975.56l.17,9.68H986.37L986,975C973.16,659.35,846.93,555,815.93,534c-2.52,2.31-5.12,4.55-7.7,6.77s-5.31,4.5-8,6.7q-8.37,6.69-17.23,12.87L661.25,810.42Z" transform="translate(-213.63 -14.76)"/><path class="cls-1" d="M544.86,811l24.82-144.57-36.54-59.12A311.15,311.15,0,0,0,605.7,616c6.52,0,13-.28,19.39-.7a302,302,0,0,0,34.66-4.11c4.46-.78,8.86-1.66,13.23-2.62l-36,57.87,23.26,148-57.19,65.34Z" transform="translate(-213.63 -14.76)"/><path class="cls-2" d="M605.7,14.76c-159.88,0-290,130.09-290,290s130.07,290,290,290,290-130.07,290-290S765.61,14.76,605.7,14.76Z" transform="translate(-213.63 -14.76)"/></svg>