<svg id="Layer_1" data-name="Layer 1" xmlns="http://www.w3.org/2000/svg" viewBox="0 0 807.24 961.66"><defs><style>.cls-1{fill:#febe10;}.cls-2{fill:#57c8e3;}</style></defs><title>g2</title><polygon points="101.94 604.49 101.94 603.81 101.94 101.83 101.94 604.49"/><path d="M196.38,19.17V979.23l807.24,1.6V20.76Zm705.44,546V756.64H298.32V121h603.5v1.25h0Z" transform="translate(-196.38 -19.17)"/><path class="cls-1" d="M389,211.37A59.54,59.54,0,1,0,448.4,271,59.54,59.54,0,0,0,389,211.37Z" transform="translate(-196.38 -19.17)"/><polygon class="cls-2" points="344.05 562.36 229.99 453.63 132.95 588.22 132.95 710.71 670.32 710.71 670.32 533.25 494.13 341.55 344.05 562.36"/><polygon points="705.44 101.83 101.94 101.83 705.44 103.08 705.44 101.83"/></svg>