<svg id="Layer_1" data-name="Layer 1" xmlns="http://www.w3.org/2000/svg" viewBox="0 0 1068.14 935.7"><title>home</title><path d="M948.5,967.85a34.57,34.57,0,0,0,34.59-34.56V563.7H1074a60.06,60.06,0,0,0,37.54-106.92L994.13,354.92V185.44a35.89,35.89,0,0,0-35.86-35.92H884a35.92,35.92,0,0,0-35.91,35.92v42.72L639.31,46.86a60,60,0,0,0-78.69,0l-474,411.46A60,60,0,0,0,125.93,563.7h90.88V933.29a34.56,34.56,0,0,0,34.59,34.56H455.63V699.15a68.77,68.77,0,0,1,68.77-68.78H675.61a68.78,68.78,0,0,1,68.77,68.78v268.7Z" transform="translate(-65.93 -32.15)"/></svg>