<svg id="Layer_1" data-name="Layer 1" xmlns="http://www.w3.org/2000/svg" viewBox="0 0 955.17 955.22"><defs><style>.cls-1{fill:#fff;}</style></defs><title>icon2</title><path class="cls-1" d="M315.34,499.91c0,156.72,127.51,284.25,284.25,284.25S883.85,656.63,883.85,499.91,756.34,215.64,599.59,215.64,315.34,343.16,315.34,499.91ZM797.65,482.6C807.17,592.05,726.24,688.45,616.86,698S411,626.53,401.55,517.18s71.38-205.83,180.77-215.31S788.16,373.27,797.65,482.6Z" transform="translate(-122 -22.29)"/><path class="cls-1" d="M989.38,657l47-1.82c11-.46,22.26-9.43,25.14-20l15.44-74.41c1.58-10.84-5.17-23.6-15-28.39l-42.34-20.49c-9.85-4.78-18-17.65-18.18-28.6,0,0-.07-5.48-1.18-18.31l-.36-4.43c-.62-4.81,6.45-13.55,15.71-19.4L1055.45,416c9.26-5.86,14.55-19.31,11.77-29.9L1043.66,314c-4-10.16-16.28-17.85-27.2-17.06l-47.13,3.41c-10.93.78-23.89-5.18-28.82-13.28s-15.1-36.37-10-46.06l21.91-41.62c5.09-9.7,3-24-4.77-31.73L891.06,117c-8.58-6.81-23-7.36-32.09-1.22L820,142.2c-9.06,6.13-23.26,7.45-31.54,2.91s-31.27-24-31.7-35l-1.86-47c-.42-10.95-9.41-22.26-20-25.14L660.5,22.52c-10.83-1.61-23.6,5.16-28.37,15L611.62,79.89c-4.79,9.85-17.64,18-28.58,18.2,0,0-5.48.08-18.31,1.17l-4.46.43c-4.81.59-13.53-6.49-19.36-15.76L515.74,44c-5.84-9.25-19.29-14.53-29.88-11.75L413.65,55.84c-10.18,4-17.86,16.26-17.07,27.18L400,130.16c.77,10.92-5.19,23.89-13.31,28.82s-36.31,15.12-46,10L299,147.07c-9.69-5.08-24-3-31.74,4.75l-50.63,56.64c-6.8,8.58-7.32,23-1.17,32.08l26.47,39c6.13,9.05,7.43,23.23,2.89,31.52s-24.06,31.25-35,31.7l-47,1.83c-10.92.44-22.24,9.42-25.12,20L122.23,439c-1.58,10.83,5.18,23.6,15,28.38l42.37,20.5c9.85,4.77,18,17.63,18.16,28.58,0,0,.09,5.51,1.2,18.31l.41,4.46c.59,4.82-6.48,13.54-15.75,19.38l-39.9,25.17c-9.26,5.84-14.55,19.28-11.77,29.86l23.57,72.17c4,10.17,16.27,17.86,27.19,17.07l47.09-3.42c10.92-.81,23.9,5.18,28.82,13.28s15.1,36.35,10,46l-21.9,41.64c-5.1,9.69-3,24,4.75,31.74l56.64,50.67c8.6,6.79,23,7.32,32.09,1.19l39-26.45c9.08-6.16,23.25-7.45,31.52-2.88s31.25,24,31.69,35l1.85,47c.43,10.93,9.42,22.26,20,25.16l74.36,15.44c10.84,1.58,23.6-5.17,28.39-15l20.56-42.38c4.77-9.84,17.65-18,28.59-18.21,0,0,5.47-.07,18.31-1.14l4.42-.38c4.81-.64,13.52,6.43,19.36,15.7l25.18,39.93c5.82,9.27,19.27,14.58,29.86,11.79l72.2-23.6c10.17-4,17.85-16.26,17.07-27.18l-3.4-47.13c-.78-10.93,5.2-23.89,13.29-28.83s36.35-15.09,46-10l41.67,21.89c9.68,5.1,24,3,31.74-4.75l50.64-56.64c6.8-8.58,7.34-23,1.2-32.09l-26.46-39c-6.14-9.06-7.46-23.25-2.91-31.52S978.45,657.46,989.38,657ZM599.59,823.82C421,823.82,275.67,678.5,275.67,499.91S421,176,599.59,176s323.92,145.3,323.92,323.93S778.2,823.82,599.59,823.82Z" transform="translate(-122 -22.29)"/></svg>