<svg id="Layer_1" data-name="Layer 1" xmlns="http://www.w3.org/2000/svg" viewBox="0 0 820.58 818.72"><defs><style>.cls-1{fill:#f04e5a;}</style></defs><title>sk3</title><path class="cls-1" d="M175.57,437.36a44.75,44.75,0,0,0-41.51,75.33c.16.15.4.18.61.41a1.88,1.88,0,0,0-.24.14l84.32,84.32L351.61,464.7l-176-28A3,3,0,0,0,175.57,437.36Z" transform="translate(-120.97 -160.23)"/><path class="cls-1" d="M660.44,917.21c.25.07.59,0,.84.11L634.6,748.92,502.36,881.16l81,81a5.48,5.48,0,0,0,.53-.54,45.34,45.34,0,0,0,3.38,4.25,44.84,44.84,0,0,0,73.19-48.66Z" transform="translate(-120.97 -160.23)"/><path class="cls-1" d="M510.23,626.55l-36.89-36.88a32,32,0,0,0-45.4,0l-67.89,67.86-10.29,10.3a32,32,0,0,0,.05,45.41l36.89,36.89a32,32,0,0,0,45.37,0l78.18-78.18a32,32,0,0,0,0-45.38Z" transform="translate(-120.97 -160.23)"/><path class="cls-1" d="M841.35,508.82l.38.38,95.83-287.59a42,42,0,0,0,3.08-9.48l.06-.13a43.17,43.17,0,0,0-52.58-50.55l0-.08-.54.16a49.44,49.44,0,0,0-6.18,2.11L601.15,256c-9.76,2.14-19.2,6.07-26.79,13.65L375.58,468.41l-143,143-24.18,24.17a54.23,54.23,0,0,0,.08,76.74l32.83,32.85-8.27,16.15L337.67,865.9l16.16-8.24,33.77,33.78a54.23,54.23,0,0,0,76.71,0l24.17-24.18L630.76,725l199.5-199.5A54.11,54.11,0,0,0,841.35,508.82ZM442.09,760.11a46.28,46.28,0,0,1-65.42,0l-36.9-36.89a46.33,46.33,0,0,1,0-65.43l10.29-10.3,67.89-67.88a46.29,46.29,0,0,1,65.43,0l36.9,36.88a46.29,46.29,0,0,1,0,65.42Zm140-242.28a83.25,83.25,0,1,1,117.71-.06A83.2,83.2,0,0,1,582.1,517.83Z" transform="translate(-120.97 -160.23)"/></svg>