<svg id="Layer_1" data-name="Layer 1" xmlns="http://www.w3.org/2000/svg" viewBox="0 0 613.57 915.31"><defs><style>.cls-1{fill:#f0505f;}</style></defs><title>sk4</title><path class="cls-1" d="M522,42.34V78.49H448.56a15.62,15.62,0,0,0-15.64,15.6v195a15.61,15.61,0,0,0,15.64,15.56H749.62a15.61,15.61,0,0,0,15.65-15.56v-195a15.62,15.62,0,0,0-15.65-15.6H676.17V42.34H660.25V78.49H538V42.34ZM695.71,264.65H502.56V243.82H695.71ZM676.19,127.21A28.72,28.72,0,1,1,647.48,156,28.72,28.72,0,0,1,676.19,127.21ZM550.64,156A28.67,28.67,0,1,1,522,127.21,28.69,28.69,0,0,1,550.64,156Z" transform="translate(-293.21 -42.34)"/><rect class="cls-1" x="36.38" y="281.81" width="59.67" height="167.98"/><rect class="cls-1" x="36.38" y="461.9" width="59.67" height="167.99"/><path class="cls-1" d="M380.2,782.6v22.61a66.26,66.26,0,1,0-41.47,0V782.6a45.53,45.53,0,1,1,41.47,0Z" transform="translate(-293.21 -42.34)"/><rect class="cls-1" x="517.44" y="281.81" width="59.7" height="167.98"/><rect class="cls-1" x="517.44" y="461.9" width="59.7" height="167.99"/><path class="cls-1" d="M861.28,782.6v22.61a66.26,66.26,0,1,0-41.51,0V782.6a45.51,45.51,0,1,1,41.51,0Z" transform="translate(-293.21 -42.34)"/><path class="cls-1" d="M415.78,315.09a15.59,15.59,0,0,0-15.59,15.6v277a15.62,15.62,0,0,0,15.59,15.6H782.41a15.61,15.61,0,0,0,15.6-15.6v-277a15.58,15.58,0,0,0-15.6-15.6ZM723.7,530.52a23.23,23.23,0,0,1-23.2,23.2H627.82l49.31-49.33a14.48,14.48,0,1,0-20.47-20.48l-69.78,69.81H497.69a23.2,23.2,0,0,1-23.19-23.2V449.41a23.2,23.2,0,0,1,23.19-23.24H700.5a23.24,23.24,0,0,1,23.2,23.24Z" transform="translate(-293.21 -42.34)"/><rect class="cls-1" x="184.78" y="597.81" width="98.5" height="153.56"/><rect class="cls-1" x="184.78" y="767.36" width="98.5" height="72.81"/><path class="cls-1" d="M452.51,892.45c-15.59,0-28.24,14.61-28.24,32.58s12.65,32.63,28.24,32.63H564.09c15.64,0,28.3-14.62,28.3-32.63s-12.66-32.58-28.3-32.58Z" transform="translate(-293.21 -42.34)"/><rect class="cls-1" x="330.29" y="597.81" width="98.5" height="153.56"/><rect class="cls-1" x="330.29" y="767.36" width="98.5" height="72.81"/><path class="cls-1" d="M635.89,892.45c-15.62,0-28.29,14.61-28.29,32.58s12.67,32.63,28.29,32.63H747.46c15.59,0,28.27-14.62,28.27-32.63s-12.68-32.58-28.27-32.58Z" transform="translate(-293.21 -42.34)"/></svg>