<svg id="Layer_1" data-name="Layer 1" xmlns="http://www.w3.org/2000/svg" viewBox="0 0 1052.07 786.51"><defs><style>.cls-1{fill:#f0505f;}</style></defs><title>sk6</title><path class="cls-1" d="M732.79,106.74H467.22a15.34,15.34,0,0,0-15.34,15.31v204.3a15.34,15.34,0,0,0,15.34,15.31H732.79a15.33,15.33,0,0,0,15.33-15.31V122.05A15.34,15.34,0,0,0,732.79,106.74Z" transform="translate(-73.97 -106.74)"/><path class="cls-1" d="M1110.71,658.31H845.15a15.33,15.33,0,0,0-15.33,15.34V877.92a15.36,15.36,0,0,0,15.33,15.34h265.56A15.34,15.34,0,0,0,1126,877.92V673.65A15.31,15.31,0,0,0,1110.71,658.31Z" transform="translate(-73.97 -106.74)"/><path class="cls-1" d="M732.79,658.31H467.22a15.34,15.34,0,0,0-15.34,15.34V877.92a15.37,15.37,0,0,0,15.34,15.34H732.79a15.37,15.37,0,0,0,15.33-15.34V673.65A15.34,15.34,0,0,0,732.79,658.31Z" transform="translate(-73.97 -106.74)"/><path class="cls-1" d="M354.86,658.31H89.29A15.31,15.31,0,0,0,74,673.65V877.92a15.34,15.34,0,0,0,15.32,15.34H354.86a15.36,15.36,0,0,0,15.32-15.34V673.65A15.33,15.33,0,0,0,354.86,658.31Z" transform="translate(-73.97 -106.74)"/><path class="cls-1" d="M1010.08,482.12a15.32,15.32,0,0,0-15.32-15.33H630.64V382.53a15.34,15.34,0,0,0-15.32-15.34H584.68a15.34,15.34,0,0,0-15.32,15.34v84.26H204.24a15.32,15.32,0,0,0-15.32,15.33v5.48a17.87,17.87,0,0,0-.38,1.85V612.36a15.34,15.34,0,0,0,15.34,15.31h30.64a15.3,15.3,0,0,0,15.31-15.31V528.07H569.36v84.29a15.31,15.31,0,0,0,15.32,15.31h30.64a15.31,15.31,0,0,0,15.32-15.31V528.07H948.88v87.16a15.31,15.31,0,0,0,15.33,15.3h30.65a15.3,15.3,0,0,0,15.3-15.3V486.59c0-.2-.08-.34-.08-.53Z" transform="translate(-73.97 -106.74)"/></svg>