<svg id="Layer_1" data-name="Layer 1" xmlns="http://www.w3.org/2000/svg" viewBox="0 0 1058.97 945.31"><defs><style>.cls-1{fill:#f0505f;}.cls-2{fill:#3a54a5;opacity:0;}</style></defs><title>sk8</title><polygon class="cls-1" points="9.41 301.84 55.41 358.76 512.99 924.91 323.81 301.84 9.41 301.84"/><polygon class="cls-1" points="882.38 0 882.38 0 882.39 0.01 882.38 0"/><polygon class="cls-1" points="547.16 923.44 1003.55 358.76 1049.55 301.84 753.2 301.84 547.16 923.44"/><polygon class="cls-1" points="1058.96 290.21 1058.97 290.2 1058.96 290.2 1058.96 290.21"/><polygon class="cls-1" points="871.27 0 542.5 0 744.81 270.36 871.27 0"/><polygon class="cls-1" points="170.46 10.07 7.09 278.55 312.91 278.55 170.46 10.07"/><polygon class="cls-1" points="1051.88 278.55 888.65 10.31 763.19 278.55 1051.88 278.55"/><polygon class="cls-1" points="1058.97 290.2 1058.96 290.18 1058.96 290.2 1058.97 290.2"/><polygon class="cls-1" points="516.94 0 188.06 0 331.57 270.44 516.94 0"/><polygon class="cls-1" points="529.81 17.83 351.11 278.55 724.9 278.55 529.81 17.83"/><path class="cls-2" d="M1129.48,317.54h0l-7.08-11.63H833.71L959.17,37.66l-6.26-10.3H941.79L815.33,297.71,613,27.35H587.45L402.09,297.78,258.58,27.35H247.1L241,37.41,383.43,305.9H77.6l-7.08,11.64,9.41,11.65h314.4L583.51,952.26,600,972.65l17.67-21.86,206-621.6h296.36l9.41-11.63ZM600.33,45.18,795.42,305.9H421.62ZM600.39,940,414.93,329.19h388Z" transform="translate(-70.52 -27.35)"/><polygon class="cls-1" points="529.88 945.31 732.36 301.84 344.41 301.84 529.88 945.31"/></svg>